Format                           : AVI
Format/Info                      : Audio Video Interleave 
Format profile                   : OpenDML
File size                        : 715 MiB
Duration                         : 1h 35mn
Overall bit rate                 : 1 042 Kbps
Writing application              : VirtualDubMod 1.5.10.2 (build 2542/release)
Writing library                  : VirtualDubMod build 2542/release 
Original source form             : MAX TORRENTZ
Copyright                        : SIGISMUNT

Video
ID                               : 0
Format                           : MPEG-4 Visual
Format profile                   : AdvancedSimple[@]L5
Format settings, BVOP            : Yes
Format settings, QPel            : No
Format settings, GMC             : No warppoints
Format settings, Matrix          : Default (H.263)
Muxing mode                      : Packed bitstream
Codec ID                         : XVID
Codec ID/Hint                    : XviD
Duration                         : 1h 35mn
Bit rate                         : 907 Kbps
Width                            : 672 pixels
Height                           : 288 pixels
Display aspect ratio             : 2.35:1
Frame rate                       : 25.000 fps
Resolution                       : 24 bits
Colorimetry                      : 4:2:0
Scan type                        : Progressive
Bits/(Pixel*Frame)               : 0.188
Stream size                      : 623 MiB (87%)
Writing library                  : XviD 1.3.0.dev55

Audio
ID                               : 1
Format                           : MPEG Audio
Format version                   : Version 1
Format profile                   : Layer 3
Codec ID                         : 55
Codec ID/Hint                    : MP3
Duration                         : 1h 35mn
Bit rate mode                    : Variable
Bit rate                         : 126 Kbps
Channel(s)                       : 2 channels
Sampling rate                    : 48.0 KHz
Resolution                       : 16 bits
Stream size                      : 86.2 MiB (12%)
Alignment                        : Aligned on interleaves
Interleave, duration             : 24 ms (0.60 video frame)
Interleave, preload duration     : 239 ms

ENCODE NOTE:

Noir videosource , Rforce audio source 
English (6 final scenes in russian) , perfect sync , real and complete line sound including starting or ending credits  
http://www.imdb.com/title/tt1038686/

Screens: 
http://www.postimg.com/image/12000/11356.jpg 
http://www.postimg.com/image/12000/11357.jpg 
http://www.postimg.com/image/12000/11358.jpg 
http://www.postimg.com/image/12000/11359.jpg

ScreenCaps: 
http://www.postimg.com/image/12000/11360.jpg

Legion (2010) R5 DVDRip XviD-MAX Torrent Free Download 
http://thepiratebay.org/user/extremezone/0/7

How To Get Your Maxspeed (uTorrent)

Torrent Client - Preferences - Bandwidth - Number of connections - Set aprox. 500 for each 
Torrent Client - Preferences - BiTorrent - Protocol Encryption - Forced
Bandwidth Allocation - High (Set download/upload limit - Unlimited)
Stop Other Active Torrents - Start downloading and wait for connections
Enjoy and Seed for at least 1:1 ratio. Also please spread the link where you found this torrent to your friends.